# xmcd
#
# Track frame offsets: 
#        150
#        14399
#        32700
#        48787
#        65577
#        76450
#        94188
#        107335
#        119558
#        131933
#        153533
#        177715
#        190315
#        204900
#        224328
#        240944
#        257093
#        272742
#        288030
#        301344
#        324590
#
# Disc length: 4606 seconds
#
# Revision: 0
# Processed by: cddbd v1.5.2PL0 Copyright (c) Steve Scherf et al.
# Submitted via: ExactAudioCopy v0.99pb5
#
DISCID=2d11fc15
DTITLE=David Bowie  - Conversation Piece (Disc01)
DYEAR=1900
DGENRE=
TTITLE0=Conversation Piece
TTITLE1=Memory Of A Free Festival, Pt. 1
TTITLE2=Memory Of A Free Festival, Pt. 2
TTITLE3=Lightning Frightening
TTITLE4=Holy Holy
TTITLE5=Moonage Daydream
TTITLE6=Hang Onto Yourself
TTITLE7=Bombers
TTITLE8=The Supermen
TTITLE9=Quicksand
TTITLE10=The Bewlay Brothers
TTITLE11=John, I'm Only Dancing
TTITLE12=Velvet Goldmine
TTITLE13=Sweet Head
TTITLE14=Ziggy Stardust
TTITLE15=Lady Stardust
TTITLE16=Growin' Up
TTITLE17=Port Of Amsterdam
TTITLE18=Dodo
TTITLE19=Candidate
TTITLE20=Who Can I Be Now
EXTD=
EXTT0=
EXTT1=
EXTT2=
EXTT3=
EXTT4=
EXTT5=
EXTT6=
EXTT7=
EXTT8=
EXTT9=
EXTT10=
EXTT11=
EXTT12=
EXTT13=
EXTT14=
EXTT15=
EXTT16=
EXTT17=
EXTT18=
EXTT19=
EXTT20=
PLAYORDER=
